<svg width="110" height="42" viewBox="0 0 110 42" xmlns="http://www.w3.org/2000/svg" class="logo-main">
  <title>
    Whittl
  </title>
  <path d="M72.07905 13.01527c.93584-3.6223 1.34275-8.31973.36685-9.58266-.08443-.1094-.1649-.1866-.43473-.1866-.17375 0-.53214.2697-.9086.8627-1.7393 2.7365-2.54578 9.7074-1.15865 14.3826.82397-1.5237 1.5417-3.3623 2.13513-5.4759zm-4.32008 8.52024c-.1762-.3185-.26908-.5066-.2702-.5089l-.0346-.0743c-1.00373-2.3284-1.50597-5.4299-1.4253-8.7688h-2.96304s-.75646 8.2715 1.58475 10.3574c.17487.1559.31947.2821.4917.3503l.00113.0034s.1052.0534.3028.0612c.0032.0004 1.4547.0397 2.3128-1.4201zm-7.92526-9.3521h-4.971l-.0673.8241c-.1299 3.0301.2084 7.7766 1.3302 9.5108.0775.1167.2887.4014.5135.4014.1616 0 .3342-.1478.454-.2748.7083-.7824 2.0122-3.0753 2.6718-9.6153l.069-.8461zM20.8222 9.3622c-.0863-1.09436-.2563-2.05946-.47215-2.81703l.00075-.00114s-.60415-2.4941-2.17498-1.5712c-.57145.33545-1.4379 1.27794-.0203 2.76133l.0045-.00038c.63592.67337 1.59903 1.28916 2.6622 1.6284h-.00003zm57.1561 16.95247l-.34522 1.34827-.19817.77942c-.1036.4073-.3725.4719-.7004.40463-4.9774-1.0976-7.0554-4.4137-7.0554-4.4137-2.1483 1.9344-3.946 1.8783-3.946 1.8783-1.2842 0-2.439-.5107-3.3545-1.4762-.5571-.5881-1.0353-1.3639-1.426-2.3134-.3136.7119-.6585 1.3269-1.0281 1.8346-1.25325 1.7208-2.57043 1.9064-3.0785 1.9064l-.0557-.0004c-1.0137-.0069-1.9516-.4307-2.70673-1.2272-.63724-.6717-1.028-1.2748-1.56406-2.5173-2.31602 3.4649-5.04402 3.7469-5.9227 3.7469-.07615 0-.1403-.0021-.1888-.0048-.8095-.0129-1.559-.3626-2.1577-1.0107-.4755-.5154-.99073-1.5995-1.2252-2.4464 0 0-2.678 3.61374-6.3883 3.61374-.6581 0-1.24494-.2216-1.6541-.7245-.85576-1.0518-.6081-2.39073-.245-4.39108.16526-.90736.3247-2.04238.28616-3.0014-.0532-.7184-.32757-1.9078-1.5513-2.0513-.0369-.00305-.07316-.00685-.11246-.0089-.0594-.0038-.12016-.0057-.1818-.0057-2.147 0-3.25828 1.9492-4.3013 6.35564-.1472.6245-.27056 2.1412-.4851 3.3353-.0363.1589-.12676.3383-.45676.3383H25.092c-.39357 0-.37778-.33527-.3588-.509l1.6376-14.06154c-.67166.389-1.58757 1.0356-2.19135 1.1749-.2164 2.2263-.5957 4.2354-1.1344 6.0189h.0008c-2.5503 8.9646-7.043 8.6709-7.043 8.6709-1.08666 0-2.07798-.44435-2.866-1.28554-.7811-.8332-1.32-2.0401-1.6895-3.37525-1.56558 2.6418-3.6706 4.66076-5.88886 4.66076-2.606 0-4.0023-2.9092-4.7116-5.31644-.2578-.8185-.4722-1.7629-.6209-2.851-.0064-.0456-.01187-.0857-.01657-.1209-.0015-.01083-.003-.02128-.0045-.03193-.01205-.093-.0175-.1437-.0175-.1437l.0004-.0004c-.1163-.9441-.18347-1.9913-.1876-3.1554L0 15.93732S.0532 9.3994 1.59453 4.13902h-.00075l.2497-.91056c.14723-.5368.43568-.5966.75007-.6018h2.73702c.73052 0 .65662.5021.58065.7906-.00075.003-.0316.118-.03234.1218-3.2105 11.7597-1.85495 17.2813-.5814 19.6691.00075.0011.00188.003.00263.0045.0059.0106.0115.0203.0173.03113.0764.13323.3203.5067.652.5067.3757 0 .7503-.28928.9934-.5238 1.3952-1.4566 3.1048-4.4496 3.6071-7.37287l.0012.00074.3857-1.79943s.0952-.7283.8161-.7283h1.37758c.766 0 .8345.52286.845.78096l.0658 2.03057.007.3615v.0015l.00186.09312.00076-.00228c.04793 2.40953.3623 5.13305 1.0639 6.60693.1141.2117.35216.5487.707.5487.4082 0 .8307-.344 1.065-.5694 1.3345-1.3316 3.2186-4.2343 3.86863-10.29638-3.07758-.623-5.88605-2.8168-6.59625-5.3807 0 0-.0365-.11724-.07505-.321-.0852-.4147-.11225-.8241-.0814-1.22242.0566-1.1326.506-2.6616 2.25453-3.7833 0 0 3.2041-2.23354 5.66676.3444.0184.0186.0366.03724.0551.05606.0015.0019.003.0031.00484.005h-.0004c1.53096 1.57746 2.0458 4.4589 2.20205 6.68903 1.149-.5605 2.1413-1.7588 2.589-3.5799l.3533-2.48043c.0679-.3972.2142-.5578.7687-.5578h2.05915c.81606 0 .8264.24345.77094.7323L29.514 13.9986c1.0996-.85676 2.3474-1.58145 3.72475-1.58145.138 0 .2749.00456.40897.01312 1.5902.09863 2.81543.87406 3.6407 1.9302 1.61955 2.07162 1.08196 5.00932.632 7.48557-.03705.20526-.07785.43067-.11677.65703-.02125.14993-.0378.3742.04964.4107.0697.0289.2743.0705.6532-.11956 2.1385-1.0717 3.7695-4.2658 4.0318-8.9887.0004-.0036.0013-.0074.0017-.011.0111-.2885.0932-.4673.4076-.4673h2.6031c.3232 0 .3965.2233.3838.4109l-.0397.5928c-.2956 4.0473.0139 6.9804.3734 8.1719.0724.1939.2888.5514.8691.4018.3646-.1195.8454-.3609 1.3583-.8482 1.137-1.0818 2.592-3.5238 3.0644-9.0172l.0697-.8556h-2.9474c-.355 0-.4005-.2625-.3915-.4826l.154-2.3422c.0207-.1834.0508-.42093.43434-.42093h3.01495l.4789-5.8817c.0122-.1511.05583-.4046.48154-.4046h2.2681c.49072 0 .49072.2769.47643.48067v.00037l-.4727 5.80524h4.9715l.4808-5.9066c.0158-.1522.0744-.3797.4789-.3797h2.26803c.4908 0 .4908.2769.4765.48063 0 .00153.0006.0023.0006.00343l-.4725 5.80225h2.9589c.38076-2.76473 1.1212-5.1182 2.09225-6.6463C69.5846.3976 70.9608 0 71.90345 0c1.24366 0 2.29834.51524 3.05085 1.49042 1.05505 1.36613 1.45537 3.68938 1.18912 6.90514-.20382 2.4656-.7384 4.7081-.9588 5.55764l-.0073.02832c-.54437 1.938-1.1852 3.67455-1.9153 5.1971l.0015-.00076c-.4682 1.0491-.9586 1.94333-1.4541 2.7064 1.10265 1.55657 2.5943 2.9381 5.7025 3.81387.0051.00228.59233.1317.46634.61654zM42.2125 9.8879c0-1.1894.95407-2.15374 2.13116-2.15374 1.17672 0 2.1308.96435 2.1308 2.15373 0 1.1897-.95408 2.1541-2.1308 2.1541-1.1771 0-2.13117-.9644-2.13117-2.1541z" fill="#FF6559" fill-rule="evenodd"/>
</svg>
